<?xml version="1.0" encoding="utf-8"?>
<!-- Generator: Adobe Illustrator 28.1.0, SVG Export Plug-In . SVG Version: 6.00 Build 0)  -->
<svg version="1.1" id="Layer_1" xmlns="http://www.w3.org/2000/svg" xmlns:xlink="http://www.w3.org/1999/xlink" x="0px" y="0px"
	 viewBox="0 0 1920 1080" style="enable-background:new 0 0 1920 1080;" xml:space="preserve">
<style type="text/css">
	.st0{fill-rule:evenodd;clip-rule:evenodd;fill:#231915;}
	.st1{fill-rule:evenodd;clip-rule:evenodd;fill:#FFB401;}
	.st2{fill-rule:evenodd;clip-rule:evenodd;fill:#02165D;}
	.st3{fill:#02165D;}
	.st4{fill:#FFB401;}
	.st5{display:none;}
	.st6{display:inline;}
</style>
<g>
	<g>
		<path id="XMLID_31_" class="st0" d="M660.19,546.99c-0.64,0-0.04,1.02,0.48,1.02C661.31,548.01,660.7,546.99,660.19,546.99z"/>
		<path id="XMLID_25_" class="st1" d="M768.04,545.59c-53.41-8.47-117.21-11.32-191.42-8.54c34.31,5.99,76.8,15.94,113.49,27.25
			C717.54,572.75,747.39,565.52,768.04,545.59L768.04,545.59z"/>
		<path class="st1" d="M701.43,609.85c-38.1-21.55-126.7-45.75-193.15-56.7c54.24,30.47,94.92,54.22,122.03,71.27
			c0.12,0.07,0.24,0.15,0.36,0.22c19.71,12.37,45.29,9.78,62.04-6.38L701.43,609.85z"/>
		<path id="XMLID_22_" class="st1" d="M630.82,677.97C567.8,632.3,473.5,572.55,424.02,550.93l121.24,125.53
			C568.47,700.49,606.77,701.17,630.82,677.97L630.82,677.97z"/>
		<path id="XMLID_21_" class="st2" d="M506,493.96c11.49-9.27,53.46-38.21,95.3-59.12c2.73-1.38,5.48-2.72,8.24-4.02
			c0.01,0,0.01-0.01,0.02-0.01c2.06-0.98,4.12-1.92,6.16-2.85V428c9.72-4.31,19.65-8.11,29.75-11.41v-23.78l0,0
			c-33.65-15.03-73.08-7.79-99.19,18.23L416.23,540.65c83.01-27.81,181.69-37.8,221.45-35.66c-0.13-1.14-0.21-2.31-0.21-3.5
			c0-16.49,13.37-29.86,29.86-29.86c16.49,0,29.85,13.37,29.85,29.86c0,3.24-0.51,6.35-1.47,9.27l58.9-1.79
			c7.85-0.24,13.53-7.56,11.82-15.22l-5.13-22.96l-8.96-1.34v-19.58c0-3.6-2.95-6.55-6.55-6.55h-21.17h-23.5h-6.37l-9.72-15.17
			h41.32c-0.07-19.36-37.55-33.44-71.83-34.9v20.53v26.93c0.2,3.21,0.18,7,0,10.9v0.42c-3.03,0.37-6.05,0.76-9.07,1.19
			c-10.12,1.41-20.19,3.13-30.21,5.15C577.64,465.98,541.22,477.84,506,493.96L506,493.96z"/>
		<path id="XMLID_20_" class="st2" d="M667.34,519.31c9.82,0,17.82-8.01,17.82-17.82c0-9.82-8.01-17.83-17.82-17.83
			s-17.82,8.01-17.82,17.83C649.52,511.3,657.52,519.31,667.34,519.31L667.34,519.31z"/>
	</g>
	<path class="st3" d="M1012.33,514.12h45.88c-4.01,45.32-43.46,77.25-100.08,77.25c-58.27,0-102.79-35.19-102.79-103.15
		c0-66.7,44.51-103.15,102.79-103.15c56.62,0,97.28,34,100.06,77.26h-45.74c-6.33-21.83-21.56-32.24-54.33-32.24
		c-34.7,0-58.73,17.81-58.73,58.13c0,40.35,24.03,58.13,58.73,58.13C992.11,546.35,1006.75,534.13,1012.33,514.12L1012.33,514.12z"
		/>
	<path class="st3" d="M1284.02,489.98c0,39.05-15.31,101.39-100.08,101.39c-10.62,0-77.54,0-87.37,0v-203h87.38
		C1269.94,388.37,1284.02,450.93,1284.02,489.98z M1238.31,489.98c0-22.87-8.77-61.36-54.36-61.36c-18.48,0-43.23,0-43.23,0v122.5
		c7.93,0,22.98,0,43.22,0C1229.22,551.12,1238.31,511.81,1238.31,489.98z"/>
	<path class="st3" d="M1503.77,533.64c0,39.1-26.01,57.73-57.01,57.73c-22.03,0-124.39,0-124.39,0v-203h78.29c5.72,0,13.9,0,24.99,0
		c42.24,0,69.55,16.96,69.55,57.73c0,22.17-7.06,34.41-19.79,41.17C1493.5,493.68,1503.76,506.92,1503.77,533.64z M1366.5,428.62
		v42.58c16.29,0,37.15,0,48.42,0c20.4,0,37-0.77,37-21.29c0-20.08-17.37-21.29-38.89-21.29
		C1401.6,428.62,1372.64,428.62,1366.5,428.62z M1460.51,528.88c0-19.13-12.11-22.26-32.52-22.26c-13.72,0-49.54,0-61.48,0v44.5
		h36.86c17.55,0,4.13,0,19.03,0C1443.92,551.12,1460.5,549.73,1460.51,528.88z"/>
	<path class="st3" d="M900.05,634.52h13.14v60.41h-13.14v-24.27h-31.56v24.27h-13.14v-60.41h13.14v24.27h31.56V634.52z"/>
	<path class="st3" d="M984,694.93h-13.62l-3.56-9.96h-30.86l-3.56,9.96h-13.62l21.61-60.35h22L984,694.93z M962.53,673l-9.49-26.5
		h-3.3l-9.49,26.5H962.53z"/>
	<path class="st3" d="M1030.53,634.52h13.66c0,0,0,24.32,0,32.56c0,8.24,0,27.85-27.28,27.85c-27.28,0-27.28-18.57-27.28-27.89
		v-32.52h13.14v31.01c0,9.08,0.41,17.38,14.13,17.38c13.87,0,13.62-10.79,13.62-17.38S1030.53,634.52,1030.53,634.52z"/>
	<path class="st3" d="M1062.93,683.06h36.51v11.87h-49.65v-60.41h13.14V683.06z"/>
	<path class="st3" d="M1154.76,634.52v11.87h-36.51v12.4h36.51v11.87h-36.51v12.25h36.51v12.02h-36.51v0h-13.14v-60.41H1154.76z"/>
	<path class="st3" d="M1203.04,671.73l11.53,23.2h-14.24l-9.79-20.18c-1.3,0.06-2.42,0.07-3.24,0.07c-2.21,0-11.18,0-13.91,0v20.11
		h-13.14v-60.41h13.14v0.05c3.21-0.01,12.75-0.05,16.33-0.05c7.26,0,23.38-0.03,23.38,20.17
		C1213.11,665.13,1208.48,668.91,1203.04,671.73z M1200.93,654.67c0-8.38-7.92-8.38-12.01-8.38c-2.39,0-12.08,0-15.52,0v16.79
		c2.85,0,14.18,0,15.32,0C1192.46,663.07,1200.93,663.12,1200.93,654.67z"/>
	<path class="st3" d="M1277.74,676.17c0,15-9.99,18.77-27.65,18.77c-29.77,0-29.76-16.49-29.76-22.34c2.73,0,6.05,0,13.48,0
		c0,9.12,8.02,10.55,15.87,10.55c9.93,0,14.06-2.29,14.06-6.97c0-4.11-4.13-4.82-15.97-6.57c-18.05-2.66-26.17-6.41-26.17-17.46
		c0-8.53,6.32-18.38,26.03-18.38c23.46,0,28.13,13.12,28.13,22.33c0,0-9.16,0-13.78,0c0-4.19-1.86-10.41-14.35-10.41
		c-10.18,0-12.49,3.67-12.49,6.59c0,3.2,3.56,4.4,13.66,6.04C1262.34,660.51,1277.74,662.5,1277.74,676.17z"/>
	<g>
		<path class="st4" d="M1335.5,683.06h36.51v11.87h-49.65v-60.41h13.14V683.06z"/>
		<path class="st4" d="M1398.7,683.06h36.51v11.87h-49.65v-60.41h13.14V683.06z"/>
		<path class="st4" d="M1490.11,671.94h13.66c-1.19,13.49-12.93,22.99-29.79,22.99c-17.34,0-30.59-10.47-30.59-30.7
			c0-19.85,13.25-30.7,30.59-30.7c16.85,0,28.95,10.12,29.78,22.99h-13.61c-1.88-6.5-6.42-9.59-16.17-9.59
			c-10.33,0-17.48,5.3-17.48,17.3c0,12.01,7.15,17.3,17.48,17.3C1484.09,681.54,1488.45,677.9,1490.11,671.94L1490.11,671.94z"/>
	</g>
</g>
<g class="st5">
	<g class="st6">
		<g>
			<path class="st4" d="M2495.71,425.47c-96.32,51.29-161.89,152.72-161.89,269.46h-45.73c0-134.25,75.4-250.9,186.14-309.87
				L2495.71,425.47z"/>
			<path class="st3" d="M2768.06,694.93h-46.79c0-22.54-9.05-42.96-23.74-57.82c-14.91-15.15-35.66-24.54-58.61-24.54
				c-13.94,0-27.11,3.47-38.63,9.61c-26.03,13.85-43.73,41.23-43.73,72.75h-46.79c0-49.44,27.76-92.37,68.56-114.07
				c18.06-9.63,38.7-15.07,60.59-15.07c35.86,0,68.29,14.62,91.7,38.22C2753.78,627.34,2768.06,659.46,2768.06,694.93z"/>
			<path class="st4" d="M2638.92,417.14v46.43c-39.25,0-76.22,9.78-108.58,27.02c-73.04,38.89-122.76,115.83-122.76,204.35h-46.45
				c0-106.29,59.7-198.64,147.4-245.33C2547.39,428.87,2591.79,417.14,2638.92,417.14z"/>
			<path class="st4" d="M2782.34,552.28L2750,584.62c-28.37-28.56-67.67-46.23-111.08-46.23c-26.54,0-51.53,6.62-73.45,18.28
				c-49.44,26.32-83.1,78.36-83.1,138.27h-45.73c0-77.42,43.49-144.65,107.35-178.65c28.29-15.07,60.61-23.62,94.93-23.62
				C2694.98,492.66,2745.69,515.46,2782.34,552.28z"/>
		</g>
		<path class="st3" d="M3020.48,514.12h45.88c-4.01,45.32-43.46,77.25-100.08,77.25c-58.27,0-102.79-35.19-102.79-103.15
			c0-66.7,44.51-103.15,102.79-103.15c56.62,0,97.28,34,100.06,77.26h-45.74c-6.33-21.83-21.56-32.24-54.33-32.24
			c-34.7,0-58.73,17.81-58.73,58.13c0,40.35,24.03,58.13,58.73,58.13C3000.26,546.35,3014.9,534.13,3020.48,514.12L3020.48,514.12z"
			/>
		<path class="st3" d="M3292.17,489.98c0,39.05-15.31,101.39-100.08,101.39c-10.62,0-77.54,0-87.37,0v-203h87.38
			C3278.09,388.37,3292.17,450.93,3292.17,489.98z M3246.45,489.98c0-22.87-8.77-61.36-54.36-61.36c-18.48,0-43.23,0-43.23,0v122.5
			c7.93,0,22.98,0,43.22,0C3237.37,551.12,3246.45,511.81,3246.45,489.98z"/>
		<path class="st3" d="M3511.91,533.64c0,39.1-26.01,57.73-57.01,57.73c-22.03,0-124.39,0-124.39,0v-203h78.29
			c5.72,0,13.9,0,24.99,0c42.24,0,69.55,16.96,69.55,57.73c0,22.17-7.06,34.41-19.79,41.17
			C3501.65,493.68,3511.9,506.92,3511.91,533.64z M3374.65,428.62v42.58c16.29,0,37.15,0,48.42,0c20.4,0,37-0.77,37-21.29
			c0-20.08-17.37-21.29-38.89-21.29C3409.75,428.62,3380.79,428.62,3374.65,428.62z M3468.66,528.88
			c0-19.13-12.11-22.26-32.52-22.26c-13.72,0-49.54,0-61.48,0v44.5h36.86c17.55,0,4.13,0,19.03,0
			C3452.07,551.12,3468.65,549.73,3468.66,528.88z"/>
		<path class="st3" d="M2908.2,634.52h13.14v60.41h-13.14v-24.27h-31.56v24.27h-13.14v-60.41h13.14v24.27h31.56V634.52z"/>
		<path class="st3" d="M2992.15,694.93h-13.62l-3.56-9.96h-30.86l-3.56,9.96h-13.62l21.61-60.35h22L2992.15,694.93z M2970.68,673
			l-9.49-26.5h-3.3l-9.49,26.5H2970.68z"/>
		<path class="st3" d="M3038.68,634.52h13.66c0,0,0,24.32,0,32.56c0,8.24,0,27.85-27.28,27.85c-27.28,0-27.28-18.57-27.28-27.89
			v-32.52h13.14v31.01c0,9.08,0.41,17.38,14.13,17.38c13.87,0,13.62-10.79,13.62-17.38S3038.67,634.52,3038.68,634.52z"/>
		<path class="st3" d="M3071.08,683.06h36.51v11.87h-49.65v-60.41h13.14V683.06z"/>
		<path class="st3" d="M3162.91,634.52v11.87h-36.51v12.4h36.51v11.87h-36.51v12.25h36.51v12.02h-36.51v0h-13.14v-60.41H3162.91z"/>
		<path class="st3" d="M3211.19,671.73l11.53,23.2h-14.24l-9.79-20.18c-1.3,0.06-2.42,0.07-3.24,0.07c-2.21,0-11.18,0-13.91,0v20.11
			h-13.14v-60.41h13.14v0.05c3.21-0.01,12.75-0.05,16.33-0.05c7.26,0,23.38-0.03,23.38,20.17
			C3221.26,665.13,3216.63,668.91,3211.19,671.73z M3209.08,654.67c0-8.38-7.92-8.38-12.01-8.38c-2.39,0-12.08,0-15.52,0v16.79
			c2.85,0,14.18,0,15.32,0C3200.61,663.07,3209.08,663.12,3209.08,654.67z"/>
		<path class="st3" d="M3285.89,676.17c0,15-9.99,18.77-27.65,18.77c-29.77,0-29.76-16.49-29.76-22.34c2.73,0,6.05,0,13.48,0
			c0,9.12,8.02,10.55,15.87,10.55c9.93,0,14.06-2.29,14.06-6.97c0-4.11-4.13-4.82-15.97-6.57c-18.05-2.66-26.17-6.41-26.17-17.46
			c0-8.53,6.32-18.38,26.03-18.38c23.46,0,28.13,13.12,28.13,22.33c0,0-9.16,0-13.78,0c0-4.19-1.86-10.41-14.35-10.41
			c-10.18,0-12.49,3.67-12.49,6.59c0,3.2,3.56,4.4,13.66,6.04C3270.49,660.51,3285.89,662.5,3285.89,676.17z"/>
		<g>
			<path class="st4" d="M3343.65,683.06h36.51v11.87h-49.65v-60.41h13.14V683.06z"/>
			<path class="st4" d="M3406.85,683.06h36.51v11.87h-49.65v-60.41h13.14V683.06z"/>
			<path class="st4" d="M3498.26,671.94h13.66c-1.19,13.49-12.93,22.99-29.79,22.99c-17.34,0-30.59-10.47-30.59-30.7
				c0-19.85,13.25-30.7,30.59-30.7c16.85,0,28.95,10.12,29.78,22.99h-13.61c-1.88-6.5-6.42-9.59-16.17-9.59
				c-10.33,0-17.48,5.3-17.48,17.3c0,12.01,7.15,17.3,17.48,17.3C3492.24,681.54,3496.6,677.9,3498.26,671.94L3498.26,671.94z"/>
		</g>
	</g>
	<g class="st6">
		<g>
			<path class="st3" d="M4588.62,431.75c0,26.42-30.27,48.07-67.21,64.65c-0.01,0-0.01,0-0.01,0c-4.6,2.07-9.29,4.06-14.05,5.96
				h-0.01c-55.12,22.08-118.02,33.56-118.02,33.56l47.34-81.03c0,0,72.43,3.73,91.12-26.33c2.46-3.97,2.83-8.89,0.76-13.08
				c-9.8-19.79-56-22.02-56-22.02l4.9-8.4C4477.46,385.07,4588.62,388.57,4588.62,431.75z"/>
			<path class="st4" d="M4599.71,541.46c0,87.53-175.07,135.68-175.07,135.68l-54.86,17.8l61.08-108.25
				c0,0,97.26-13.62,116.32-47.08c14.22-24.95-21-34.17-39.83-37.25c4.76-1.91,9.45-3.9,14.05-5.96c0,0,0,0,0.01,0
				C4522.26,496.35,4593.72,492.63,4599.71,541.46z"/>
		</g>
		<g>
			<path class="st3" d="M4818.78,514.12h45.88c-4.01,45.32-43.46,77.25-100.08,77.25c-58.27,0-102.79-35.19-102.79-103.15
				c0-66.7,44.51-103.15,102.79-103.15c56.62,0,97.28,34,100.06,77.26h-45.74c-6.33-21.83-21.56-32.24-54.33-32.24
				c-34.7,0-58.73,17.81-58.73,58.13c0,40.35,24.03,58.13,58.73,58.13C4798.56,546.35,4813.2,534.13,4818.78,514.12L4818.78,514.12z
				"/>
			<path class="st3" d="M5090.46,489.98c0,39.05-15.31,101.39-100.08,101.39c-10.62,0-77.54,0-87.37,0v-203h87.38
				C5076.39,388.37,5090.46,450.93,5090.46,489.98z M5044.75,489.98c0-22.87-8.77-61.36-54.36-61.36c-18.48,0-43.23,0-43.23,0v122.5
				c7.93,0,22.98,0,43.22,0C5035.67,551.12,5044.75,511.81,5044.75,489.98z"/>
			<path class="st3" d="M5310.21,533.64c0,39.1-26.01,57.73-57.01,57.73c-22.03,0-124.39,0-124.39,0v-203h78.29
				c5.72,0,13.9,0,24.99,0c42.24,0,69.55,16.96,69.55,57.73c0,22.17-7.06,34.41-19.79,41.17
				C5299.95,493.68,5310.2,506.92,5310.21,533.64z M5172.95,428.62v42.58c16.29,0,37.15,0,48.42,0c20.4,0,37-0.77,37-21.29
				c0-20.08-17.37-21.29-38.89-21.29C5208.05,428.62,5179.09,428.62,5172.95,428.62z M5266.96,528.88
				c0-19.13-12.11-22.26-32.52-22.26c-13.72,0-49.54,0-61.48,0v44.5h36.86c17.55,0,4.13,0,19.03,0
				C5250.37,551.12,5266.95,549.73,5266.96,528.88z"/>
			<path class="st3" d="M4706.49,634.52h13.14v60.41h-13.14v-24.27h-31.56v24.27h-13.14v-60.41h13.14v24.27h31.56V634.52z"/>
			<path class="st3" d="M4790.45,694.93h-13.62l-3.56-9.96h-30.86l-3.56,9.96h-13.62l21.61-60.35h22L4790.45,694.93z M4768.98,673
				l-9.49-26.5h-3.3l-9.49,26.5H4768.98z"/>
			<path class="st3" d="M4836.98,634.52h13.66c0,0,0,24.32,0,32.56c0,8.24,0,27.85-27.28,27.85c-27.28,0-27.28-18.57-27.28-27.89
				v-32.52h13.14v31.01c0,9.08,0.41,17.38,14.13,17.38c13.87,0,13.62-10.79,13.62-17.38S4836.97,634.52,4836.98,634.52z"/>
			<path class="st3" d="M4869.38,683.06h36.51v11.87h-49.65v-60.41h13.14V683.06z"/>
			<path class="st3" d="M4961.21,634.52v11.87h-36.51v12.4h36.51v11.87h-36.51v12.25h36.51v12.02h-36.51v0h-13.14v-60.41H4961.21z"
				/>
			<path class="st3" d="M5009.49,671.73l11.53,23.2h-14.24l-9.79-20.18c-1.3,0.06-2.42,0.07-3.24,0.07c-2.21,0-11.18,0-13.91,0
				v20.11h-13.14v-60.41h13.14v0.05c3.21-0.01,12.75-0.05,16.33-0.05c7.26,0,23.38-0.03,23.38,20.17
				C5019.56,665.13,5014.93,668.91,5009.49,671.73z M5007.38,654.67c0-8.38-7.92-8.38-12.01-8.38c-2.39,0-12.08,0-15.52,0v16.79
				c2.85,0,14.18,0,15.32,0C4998.91,663.07,5007.38,663.12,5007.38,654.67z"/>
			<path class="st3" d="M5084.19,676.17c0,15-9.99,18.77-27.65,18.77c-29.77,0-29.76-16.49-29.76-22.34c2.73,0,6.05,0,13.48,0
				c0,9.12,8.02,10.55,15.87,10.55c9.93,0,14.06-2.29,14.06-6.97c0-4.11-4.13-4.82-15.97-6.57c-18.05-2.66-26.17-6.41-26.17-17.46
				c0-8.53,6.32-18.38,26.03-18.38c23.46,0,28.13,13.12,28.13,22.33c0,0-9.16,0-13.78,0c0-4.19-1.86-10.41-14.35-10.41
				c-10.18,0-12.49,3.67-12.49,6.59c0,3.2,3.56,4.4,13.66,6.04C5068.79,660.51,5084.19,662.5,5084.19,676.17z"/>
			<g>
				<path class="st4" d="M5141.95,683.06h36.51v11.87h-49.65v-60.41h13.14V683.06z"/>
				<path class="st4" d="M5205.14,683.06h36.51v11.87h-49.65v-60.41h13.14V683.06z"/>
				<path class="st4" d="M5296.56,671.94h13.66c-1.19,13.49-12.93,22.99-29.79,22.99c-17.34,0-30.59-10.47-30.59-30.7
					c0-19.85,13.25-30.7,30.59-30.7c16.85,0,28.95,10.12,29.78,22.99h-13.61c-1.88-6.5-6.42-9.59-16.17-9.59
					c-10.33,0-17.48,5.3-17.48,17.3c0,12.01,7.15,17.3,17.48,17.3C5290.54,681.54,5294.9,677.9,5296.56,671.94L5296.56,671.94z"/>
			</g>
		</g>
	</g>
</g>
</svg>
